<svg width="28" height="28" viewBox="0 0 28 28" fill="none" xmlns="http://www.w3.org/2000/svg">
<path d="M10.3329 27.3337L9.79961 23.067C9.51072 22.9559 9.2385 22.8225 8.98294 22.667C8.72739 22.5114 8.47739 22.3448 8.23294 22.167L4.26628 23.8337L0.599609 17.5003L4.03294 14.9003C4.01072 14.7448 3.99961 14.5948 3.99961 14.4503V13.5503C3.99961 13.4059 4.01072 13.2559 4.03294 13.1003L0.599609 10.5003L4.26628 4.16699L8.23294 5.83366C8.47739 5.65588 8.73294 5.48921 8.99961 5.33366C9.26628 5.1781 9.53294 5.04477 9.79961 4.93366L10.3329 0.666992H17.6663L18.1996 4.93366C18.4885 5.04477 18.7607 5.1781 19.0163 5.33366C19.2718 5.48921 19.5218 5.65588 19.7663 5.83366L23.7329 4.16699L27.3996 10.5003L23.9663 13.1003C23.9885 13.2559 23.9996 13.4059 23.9996 13.5503V14.4503C23.9996 14.5948 23.9774 14.7448 23.9329 14.9003L27.3663 17.5003L23.6996 23.8337L19.7663 22.167C19.5218 22.3448 19.2663 22.5114 18.9996 22.667C18.7329 22.8225 18.4663 22.9559 18.1996 23.067L17.6663 27.3337H10.3329ZM12.6663 24.667H15.2996L15.7663 21.1337C16.4552 20.9559 17.0941 20.6948 17.6829 20.3503C18.2718 20.0059 18.8107 19.5892 19.2996 19.1003L22.5996 20.467L23.8996 18.2003L21.0329 16.0337C21.1441 15.7225 21.2218 15.3948 21.2663 15.0503C21.3107 14.7059 21.3329 14.3559 21.3329 14.0003C21.3329 13.6448 21.3107 13.2948 21.2663 12.9503C21.2218 12.6059 21.1441 12.2781 21.0329 11.967L23.8996 9.80033L22.5996 7.53366L19.2996 8.93366C18.8107 8.42255 18.2718 7.99477 17.6829 7.65033C17.0941 7.30588 16.4552 7.04477 15.7663 6.86699L15.3329 3.33366H12.6996L12.2329 6.86699C11.5441 7.04477 10.9052 7.30588 10.3163 7.65033C9.72739 7.99477 9.1885 8.41144 8.69961 8.90033L5.39961 7.53366L4.09961 9.80033L6.96628 11.9337C6.85516 12.267 6.77739 12.6003 6.73294 12.9337C6.6885 13.267 6.66628 13.6225 6.66628 14.0003C6.66628 14.3559 6.6885 14.7003 6.73294 15.0337C6.77739 15.367 6.85516 15.7003 6.96628 16.0337L4.09961 18.2003L5.39961 20.467L8.69961 19.067C9.1885 19.5781 9.72739 20.0059 10.3163 20.3503C10.9052 20.6948 11.5441 20.9559 12.2329 21.1337L12.6663 24.667ZM14.0663 18.667C15.3552 18.667 16.4552 18.2114 17.3663 17.3003C18.2774 16.3892 18.7329 15.2892 18.7329 14.0003C18.7329 12.7114 18.2774 11.6114 17.3663 10.7003C16.4552 9.78921 15.3552 9.33366 14.0663 9.33366C12.7552 9.33366 11.6496 9.78921 10.7496 10.7003C9.84961 11.6114 9.39961 12.7114 9.39961 14.0003C9.39961 15.2892 9.84961 16.3892 10.7496 17.3003C11.6496 18.2114 12.7552 18.667 14.0663 18.667Z" fill="#1D1B20"/>
</svg>
